<svg id="레이어_1" data-name="레이어 1" xmlns="http://www.w3.org/2000/svg" viewBox="0 0 30 30"><defs><style>.cls-1{opacity:0.37;}</style></defs><title>로고</title><path class="cls-1" d="M28.54,13.31l-7.2-7.62A4.77,4.77,0,0,0,16.8,4.33a4.84,4.84,0,0,0-1.92.93c1.94.52,3.33,2.24,4,2.83L26,15.76a1.23,1.23,0,0,1,.33,1.11,1.27,1.27,0,0,1-.72.92L23.09,18.9a6.31,6.31,0,0,1-.63,4.17L27,21a4.81,4.81,0,0,0,1.51-7.71Z"/><path d="M21.28,17.71c-1.38-1.88-4.23-1.84-6-.68.65-1.89,1.54-4.2,1.92-5.64a4.64,4.64,0,0,0-.36-3.25,4.34,4.34,0,0,0-2.52-1.82A10.9,10.9,0,0,0,7,6.59a10.51,10.51,0,0,0-5.21,4.28C.58,12.67-.54,15.35.61,17.45c1.28,2.35,4.55,3.13,7,3a6.18,6.18,0,0,1-3.06-2A5.77,5.77,0,0,1,3.68,14,9.12,9.12,0,0,1,6.54,9.33,7.18,7.18,0,0,1,9.77,7.41a4.11,4.11,0,0,1,2.1-.07,1.13,1.13,0,0,1,.76,1.08,5.87,5.87,0,0,1-.54,2.93h0A139.07,139.07,0,0,1,6.75,25.76c1.76,0,3.52,0,5.28,0a26.82,26.82,0,0,0,3.47-.05,8.32,8.32,0,0,0,5.27-2.29A4.78,4.78,0,0,0,21.28,17.71Zm-4,1.65a8.21,8.21,0,0,1-1.68,4.06,2.56,2.56,0,0,1-1.74,1.18c-.79.07-.94-.49-.85-1.17a9.75,9.75,0,0,1,1.8-4.1c.39-.52.89-1.22,1.6-1.27S17.3,18.74,17.24,19.36Z"/></svg>